<!-- Generated by IcoMoon.io -->
<svg version="1.1" xmlns="http://www.w3.org/2000/svg" width="32" height="32" viewBox="0 0 32 32">
<title>archive</title>
<path d="M13.904 2.127c-0.168-0.004-0.334 0.032-0.485 0.104l-10.667 3.948c-0.215 0.092-0.354 0.227-0.46 0.375l-0.002 0.002c-0.059 0.059-0.097 0.134-0.123 0.215-0.069 0.185-0.073 0.379-0.033 0.571v21.992c0 0.295 0.239 0.533 0.533 0.533h26.667c0.295-0 0.533-0.239 0.533-0.533v-21.992c0.039-0.192 0.036-0.386-0.033-0.571-0.026-0.081-0.064-0.156-0.123-0.215l-0.002-0.002c-0.106-0.148-0.246-0.283-0.46-0.375l-10.667-3.948c-0.128-0.062-0.268-0.097-0.41-0.104-1.184-0.062-1.57 1.564-0.485 2.042l7.885 2.231h-19.142l7.885-2.231c1.042-0.462 0.73-2.018-0.41-2.042zM4.267 8.533h23.467v19.2h-23.467zM16 10.652c-0.538 0-1.077 0.36-1.067 1.081v10.24l-2.446-2.446c-1.005-1.047-2.555 0.503-1.508 1.508l4.267 4.269c0.1 0.1 0.221 0.179 0.354 0.233 0.131 0.053 0.272 0.079 0.417 0.077 0.142-0.002 0.281-0.032 0.408-0.087 0.052-0.023 0.092-0.065 0.14-0.096 0.065-0.041 0.134-0.074 0.19-0.129l4.267-4.267c1.047-1.005-0.503-2.555-1.508-1.508l-2.446 2.446v-10.24c0.010-0.721-0.528-1.081-1.067-1.081z"></path>
</svg>
