<!-- Generated by IcoMoon.io -->
<svg version="1.1" xmlns="http://www.w3.org/2000/svg" width="32" height="32" viewBox="0 0 32 32">
<title>chat-message</title>
<path d="M8.533 4.267c-2.345 0-4.267 1.921-4.267 4.267v8.533c0 2.345 1.921 4.267 4.267 4.267h1.485c0.039 0.074 0.17 0.175 0.156 0.273-0.026 0.187-0.226 0.603-0.61 1.081-0.769 0.957-2.116 2.058-2.94 3.387-0.1 0.159-0.159 0.353-0.159 0.56 0 0.589 0.478 1.067 1.067 1.067 0.096 0 0.19-0.013 0.279-0.037l-0.007 0.002c2.298-0.603 4.479-1.133 6.438-2.117 1.76-0.884 3.267-2.268 4.415-4.217h4.81c2.345 0 4.267-1.921 4.267-4.267v-8.533c0-2.345-1.921-4.267-4.267-4.267h-14.933zM8.533 6.4h14.933c1.2 0 2.133 0.933 2.133 2.133v8.533c0 1.2-0.933 2.133-2.133 2.133h-5.333c-0 0-0 0-0 0-0.415 0-0.775 0.237-0.951 0.584l-0.003 0.006c-0.965 1.93-2.24 3.022-3.896 3.854-0.664 0.333-1.63 0.526-2.412 0.785 0.134-0.153 0.231-0.25 0.356-0.406 0.49-0.61 0.94-1.267 1.060-2.117s-0.278-1.821-1.046-2.46c-0.183-0.153-0.421-0.246-0.681-0.246 0 0-0 0-0 0h-2.027c-1.2 0-2.133-0.933-2.133-2.133v-8.533c0-1.2 0.933-2.133 2.133-2.133z"></path>
</svg>
