<!-- Generated by IcoMoon.io -->
<svg version="1.1" xmlns="http://www.w3.org/2000/svg" width="32" height="32" viewBox="0 0 32 32">
<title>check</title>
<path d="M27.374 8.828c-0.442-0.42-1.14-0.388-1.552 0.076l-12.442 13.929-7.242-7.422c-0.429-0.442-1.122-0.442-1.551 0s-0.429 1.155 0 1.598l8.055 8.26c0.006 0.007 0.015 0.002 0.015 0.002s0.013 0.030 0.022 0.034c0.21 0.199 0.475 0.294 0.739 0.294 0.269 0 0.531-0.116 0.743-0.315l0.033-0.017 0.007-0.017 0.030-0.021 13.215-14.805c0.409-0.461 0.376-1.177-0.073-1.597z"></path>
</svg>
