<!-- Generated by IcoMoon.io -->
<svg version="1.1" xmlns="http://www.w3.org/2000/svg" width="32" height="32" viewBox="0 0 32 32">
<title>check-bold</title>
<path d="M26.148 8.531c-0.004-0-0.008-0-0.012-0-0.485 0-0.919 0.216-1.213 0.556l-0.002 0.002-11.033 12.496-6.808-7.702c-0.295-0.332-0.723-0.54-1.199-0.54-0.884 0-1.601 0.717-1.601 1.601 0 0.408 0.152 0.78 0.403 1.062l-0.001-0.002 8.006 9.058c0.295 0.332 0.722 0.539 1.198 0.539s0.905-0.209 1.198-0.54l0.001-0.002 12.233-13.852c0.258-0.283 0.417-0.662 0.417-1.077 0-0.879-0.709-1.593-1.587-1.6h-0.001z"></path>
</svg>
