<!-- Generated by IcoMoon.io -->
<svg version="1.1" xmlns="http://www.w3.org/2000/svg" width="32" height="32" viewBox="0 0 32 32">
<title>close</title>
<path d="M25.708 4.888c-0.089-0.004-0.18 0.002-0.271 0.019-1.44 0.481-2.16 1.958-3.306 2.854-2.043 2.044-4.089 4.085-6.133 6.127-2.385-2.379-4.772-4.756-7.162-7.129-0.683-0.568-1.209-1.368-1.992-1.79-0.259-0.076-0.532-0.080-0.798-0.042-1.352 0.272-1.49 2.339-0.3 2.927 2.715 2.713 5.426 5.43 8.14 8.144-2.946 2.949-5.885 5.905-8.802 8.883-0.882 1.252 1.11 3.006 2.208 1.89 2.915-2.875 5.817-5.765 8.713-8.66 2.95 2.945 5.903 5.886 8.877 8.806 1.252 0.882 3.006-1.11 1.89-2.208-2.873-2.915-5.761-5.818-8.656-8.713 2.502-2.508 5.002-5.020 7.496-7.535 0.58-0.725 1.808-1.339 1.435-2.444-0.164-0.598-0.715-1.101-1.337-1.129z"></path>
</svg>
