<!-- Generated by IcoMoon.io -->
<svg version="1.1" xmlns="http://www.w3.org/2000/svg" width="32" height="32" viewBox="0 0 32 32">
<title>document</title>
<path d="M7.467 2.133c-1.754 0-3.2 1.446-3.2 3.2v21.333c0 1.754 1.446 3.2 3.2 3.2h17.067c1.754 0 3.2-1.446 3.2-3.2v-21.333c0-1.754-1.446-3.2-3.2-3.2zM7.467 4.267h17.067c0.609 0 1.067 0.457 1.067 1.067v21.333c0 0.609-0.457 1.067-1.067 1.067h-17.067c-0.609 0-1.067-0.457-1.067-1.067v-21.333c0-0.609 0.457-1.067 1.067-1.067z"></path>
<path d="M8.533 6.4v2.133h10.849v-2.133z"></path>
<path d="M8.533 14.933v2.133h14.962v-2.133z"></path>
<path d="M8.533 19.2v2.133h14.962v-2.133z"></path>
<path d="M8.533 25.6v-2.133h14.962v2.133z"></path>
<path d="M8.533 10.667v2.133h14.962v-2.133z"></path>
</svg>
