<!-- Generated by IcoMoon.io -->
<svg version="1.1" xmlns="http://www.w3.org/2000/svg" width="32" height="32" viewBox="0 0 32 32">
<title>download</title>
<path d="M3.2 27.733c-1.442-0.020-1.442 2.154 0 2.133h25.6c1.442 0.020 1.442-2.154 0-2.133z"></path>
<path d="M11.733 2.133c-0.589 0-1.067 0.478-1.067 1.067v9.6h-3.2c-0.887 0.001-1.385 1.020-0.842 1.721l8.427 10.531c0.167 0.309 0.476 0.515 0.825 0.552h0.004c0.025 0.003 0.050 0.005 0.075 0.006 0.027 0.001 0.054 0.001 0.081 0h0.019c0.033-0.002 0.065-0.005 0.098-0.010 0.337-0.046 0.632-0.249 0.794-0.548l0.002-0.002 8.425-10.529c0.544-0.7 0.045-1.72-0.842-1.721h-3.2v-9.6c-0-0.589-0.478-1.067-1.067-1.067zM12.8 4.267h6.4v9.6c0 0.589 0.478 1.067 1.067 1.067h2.087l-6.354 7.865-6.354-7.865h2.088c0.589-0 1.067-0.478 1.067-1.067z"></path>
</svg>
