<!-- Generated by IcoMoon.io -->
<svg version="1.1" xmlns="http://www.w3.org/2000/svg" width="32" height="32" viewBox="0 0 32 32">
<title>emoji</title>
<path d="M16 2.133c-7.646 0-13.867 6.221-13.867 13.867s6.221 13.867 13.867 13.867c7.646 0 13.867-6.221 13.867-13.867s-6.221-13.867-13.867-13.867zM16 4.267c6.493 0 11.733 5.241 11.733 11.733s-5.241 11.733-11.733 11.733c-6.493 0-11.733-5.241-11.733-11.733s5.241-11.733 11.733-11.733z"></path>
<path d="M9.627 19.188c-0.809 0.031-1.29 0.917-0.875 1.613 1.714 2.969 3.82 3.733 7.248 3.733s5.534-0.765 7.248-3.733c0.711-1.232-1.137-2.299-1.848-1.067-1.335 2.312-2.731 2.667-5.4 2.667s-4.065-0.355-5.4-2.667c-0.196-0.351-0.572-0.561-0.973-0.546z"></path>
<path d="M11.733 9.6c-1.166 0-2.133 0.968-2.133 2.133s0.968 2.133 2.133 2.133c1.166 0 2.133-0.968 2.133-2.133s-0.968-2.133-2.133-2.133z"></path>
<path d="M20.267 9.6c-1.166 0-2.133 0.968-2.133 2.133s0.968 2.133 2.133 2.133c1.166 0 2.133-0.968 2.133-2.133s-0.968-2.133-2.133-2.133z"></path>
</svg>
