<!-- Generated by IcoMoon.io -->
<svg version="1.1" xmlns="http://www.w3.org/2000/svg" width="32" height="32" viewBox="0 0 32 32">
<title>external</title>
<path d="M28.779 2.123c-0.040 0.001-0.079 0.005-0.119 0.010h-6.26c-1.442-0.020-1.442 2.154 0 2.133h3.825l-10.979 10.979c-1.047 1.005 0.503 2.555 1.508 1.508l10.979-10.979v3.825c-0.020 1.442 2.154 1.442 2.133 0v-6.265c0.090-0.654-0.428-1.232-1.087-1.212zM3.2 4.267c-0.589 0-1.067 0.478-1.067 1.067v23.467c0 0.589 0.478 1.067 1.067 1.067h23.467c0.589-0 1.067-0.478 1.067-1.067v-14.933c0.020-1.442-2.154-1.442-2.133 0v13.867h-21.333v-21.333h13.867c1.442 0.020 1.442-2.154 0-2.133z"></path>
</svg>
