<!-- Generated by IcoMoon.io -->
<svg version="1.1" xmlns="http://www.w3.org/2000/svg" width="32" height="32" viewBox="0 0 32 32">
<title>eye</title>
<path d="M16 7.467c-8.404 0-13.734 7.988-13.734 7.988-0.177 0.343-0.177 0.747 0 1.090 0 0 5.33 7.988 13.734 7.988s13.734-7.988 13.734-7.988c0.177-0.343 0.177-0.747 0-1.090 0 0-5.33-7.988-13.734-7.988zM16 9.905c6.171 0 10.527 5.176 11.052 6.095-0.525 0.919-4.882 6.095-11.052 6.095s-10.527-5.176-11.052-6.095c0.525-0.919 4.882-6.095 11.052-6.095z"></path>
<path d="M19.782 16c0 2.020-1.693 3.657-3.782 3.657s-3.782-1.637-3.782-3.657c0-2.020 1.693-3.657 3.782-3.657s3.782 1.637 3.782 3.657z"></path>
</svg>
