<!-- Generated by IcoMoon.io -->
<svg version="1.1" xmlns="http://www.w3.org/2000/svg" width="32" height="32" viewBox="0 0 32 32">
<title>favorite-1</title>
<path d="M16.012 3.2c-0.41-0.005-0.787 0.226-0.969 0.594l-3.515 7.121-7.856 1.14c-0.876 0.127-1.224 1.204-0.59 1.821l5.683 5.542-1.342 7.827c-0.148 0.871 0.766 1.534 1.548 1.123l7.027-3.696 7.027 3.696c0.782 0.411 1.696-0.252 1.548-1.123l-1.342-7.827 5.683-5.542c0.635-0.617 0.286-1.693-0.59-1.821l-7.856-1.14-3.515-7.121c-0.178-0.36-0.543-0.589-0.944-0.594z"></path>
</svg>
