<!-- Generated by IcoMoon.io -->
<svg version="1.1" xmlns="http://www.w3.org/2000/svg" width="32" height="32" viewBox="0 0 32 32">
<title>favorite-0</title>
<path d="M16.012 3.2c-0.004-0-0.008-0-0.013-0-0.417 0-0.778 0.239-0.953 0.588l-0.003 0.006-3.515 7.121-7.856 1.142c-0.519 0.078-0.913 0.521-0.913 1.056 0 0.299 0.123 0.569 0.321 0.763l5.686 5.542-1.342 7.825c-0.010 0.054-0.015 0.117-0.015 0.181 0 0.589 0.478 1.067 1.067 1.067 0.182 0 0.353-0.045 0.502-0.125l-0.006 0.003 7.027-3.696 7.027 3.696c0.144 0.077 0.315 0.123 0.497 0.123 0.589 0 1.067-0.478 1.067-1.067 0-0.064-0.006-0.126-0.016-0.187l0.001 0.006-1.342-7.825 5.685-5.542c0.198-0.194 0.321-0.464 0.321-0.763 0-0.535-0.394-0.978-0.907-1.055l-0.006-0.001-7.856-1.142-3.515-7.121c-0.176-0.351-0.532-0.589-0.943-0.594h-0.001zM16 6.677l2.806 5.683c0.155 0.309 0.448 0.53 0.796 0.583l0.006 0.001 6.273 0.912-4.54 4.425c-0.198 0.194-0.322 0.464-0.322 0.763 0 0.064 0.006 0.126 0.016 0.187l-0.001-0.006 1.073 6.246-5.613-2.948c-0.144-0.077-0.315-0.122-0.496-0.122s-0.352 0.045-0.502 0.125l0.006-0.003-5.612 2.948 1.073-6.246c0.010-0.054 0.015-0.117 0.015-0.18 0-0.299-0.123-0.569-0.321-0.763l-0-0-4.54-4.425 6.273-0.912c0.354-0.053 0.647-0.274 0.799-0.577l0.003-0.006 2.806-5.683z"></path>
</svg>
