<!-- Generated by IcoMoon.io -->
<svg version="1.1" xmlns="http://www.w3.org/2000/svg" width="32" height="32" viewBox="0 0 32 32">
<title>history</title>
<path d="M5.333 2.133c-1.754 0-3.2 1.446-3.2 3.2v21.333c0 1.754 1.446 3.2 3.2 3.2h21.333c1.754 0 3.2-1.446 3.2-3.2v-21.333c0-1.754-1.446-3.2-3.2-3.2zM5.333 4.267h21.333c0.609 0 1.067 0.457 1.067 1.067v21.333c0 0.609-0.457 1.067-1.067 1.067h-21.333c-0.609 0-1.067-0.457-1.067-1.067v-21.333c0-0.609 0.457-1.067 1.067-1.067z"></path>
<path d="M13.85 6.385c-0.588 0.009-1.058 0.493-1.050 1.081v10.667c0 0.589 0.478 1.067 1.067 1.067h10.667c1.442 0.020 1.442-2.154 0-2.133h-9.6v-9.6c0.008-0.601-0.482-1.091-1.083-1.081z"></path>
</svg>
