<!-- Generated by IcoMoon.io -->
<svg version="1.1" xmlns="http://www.w3.org/2000/svg" width="32" height="32" viewBox="0 0 32 32">
<title>keyboard_arrow_left_right</title>
<path d="M20 5.758c-1.535 0.159-1.885 2.473-0.673 3.275 1.711 2.318 3.422 4.636 5.133 6.954-1.967 2.742-4.131 5.364-5.885 8.242-0.418 1.592 2.165 2.787 3.025 1.32 2.25-2.988 4.576-5.923 6.675-9.017 0.371-1.491-1.083-2.477-1.765-3.601-1.81-2.326-3.427-4.809-5.431-6.978-0.326-0.187-0.709-0.237-1.079-0.196z"></path>
<path d="M11.419 5.758c-1.667 0.723-2.238 2.617-3.438 3.848-1.46 1.988-3.049 3.892-4.31 6.015-0.147 1.622 1.423 2.582 2.136 3.852 1.721 2.206 3.238 4.583 5.18 6.608 1.414 0.852 3.265-1.304 2.081-2.525-1.804-2.55-3.681-5.048-5.533-7.565 1.962-2.69 4.014-5.318 5.852-8.096 0.349-1.142-0.812-2.37-1.969-2.138z"></path>
</svg>
