<!-- Generated by IcoMoon.io -->
<svg version="1.1" xmlns="http://www.w3.org/2000/svg" width="32" height="32" viewBox="0 0 32 32">
<title>link</title>
<path d="M29.218 13.136c2.115-1.932 1.612-7.439-0.69-9.741s-7.686-2.685-9.741-0.69l-7.413 7.2c-2.465 2.394-1.653 7.81 1.417 8.954 0.996 1.036 2.54-0.478 1.523-1.494-1.77-0.501-3.43-4.011-1.432-5.952l7.413-7.2c1.39-1.35 5.277-1.079 6.724 0.69 1.472 1.8 2.148 5.012 0.69 6.724-1.377 1.616-2.475 2.261-2.475 2.261-1.034 1.006 0.503 2.543 1.509 1.508z"></path>
<path d="M2.778 18.864c-2.072 1.978-1.612 7.439 0.69 9.741s7.7 2.7 9.741 0.69l7.306-7.2c2.293-2.26 0.959-7.701-1.417-8.954-0.996-1.036-2.54 0.478-1.523 1.494 1.578 0.526 3.516 3.898 1.432 5.952l-7.306 7.2c-1.327 1.308-5.13 0.904-6.724-0.69s-2.037-5.437-0.69-6.724l2.368-2.261c1.034-1.006-0.503-2.543-1.508-1.509z"></path>
</svg>
