<!-- Generated by IcoMoon.io -->
<svg version="1.1" xmlns="http://www.w3.org/2000/svg" width="32" height="32" viewBox="0 0 32 32">
<title>list</title>
<path d="M9.6 4.267c-1.442-0.020-1.442 2.154 0 2.133h17.067c1.442 0.020 1.442-2.154 0-2.133z"></path>
<path d="M9.6 10.667c-1.442-0.020-1.442 2.154 0 2.133h17.067c1.442 0.020 1.442-2.154 0-2.133z"></path>
<path d="M9.6 17.067c-1.442-0.020-1.442 2.154 0 2.133h17.067c1.442 0.020 1.442-2.154 0-2.133z"></path>
<path d="M9.6 23.467c-1.442-0.020-1.442 2.154 0 2.133h17.067c1.442 0.020 1.442-2.154 0-2.133z"></path>
<path d="M2.133 4.267h4.267v2.133h-4.267v-2.133z"></path>
<path d="M2.133 10.667h4.267v2.133h-4.267v-2.133z"></path>
<path d="M2.133 17.067h4.267v2.133h-4.267v-2.133z"></path>
<path d="M2.133 23.467h4.267v2.133h-4.267v-2.133z"></path>
</svg>
