<!-- Generated by IcoMoon.io -->
<svg version="1.1" xmlns="http://www.w3.org/2000/svg" width="32" height="32" viewBox="0 0 32 32">
<title>lock-0</title>
<path d="M16 2.133c-4.118 0-7.467 1.215-7.467 5.333v3.2h-1.067c-1.754 0-3.2 1.446-3.2 3.2v12.8c0 1.754 1.446 3.2 3.2 3.2h17.067c1.754 0 3.2-1.446 3.2-3.2v-12.8c0-1.754-1.446-3.2-3.2-3.2h-1.067v-3.2c0-4.118-3.349-5.333-7.467-5.333zM16 4.267c2.973 0 5.333 0.227 5.333 3.2v3.2h-10.667v-3.2c0-2.973 2.36-3.2 5.333-3.2zM7.467 12.8h17.067c0.609 0 1.067 0.457 1.067 1.067v12.8c0 0.609-0.457 1.067-1.067 1.067h-17.067c-0.609 0-1.067-0.457-1.067-1.067v-12.8c0-0.609 0.457-1.067 1.067-1.067z"></path>
</svg>
