<!-- Generated by IcoMoon.io -->
<svg version="1.1" xmlns="http://www.w3.org/2000/svg" width="32" height="32" viewBox="0 0 32 32">
<title>markdown</title>
<path d="M4.267 8.533h4.267l2.133 4.267 2.133-4.267h4.267v12.8h-4.267v-6.4l-2.133 3.2-2.133-3.2v6.4h-4.267zM21.333 8.533h4.267v6.4h3.2l-5.333 6.4-5.333-6.4h3.2v-6.4zM4.267 6.4c-1.182 0-2.133 0.951-2.133 2.133v12.8c0 1.182 0.951 2.133 2.133 2.133h23.467c1.182 0 2.133-0.951 2.133-2.133v-12.8c0-1.182-0.951-2.133-2.133-2.133h-23.467z"></path>
</svg>
