<!-- Generated by IcoMoon.io -->
<svg version="1.1" xmlns="http://www.w3.org/2000/svg" width="32" height="32" viewBox="0 0 32 32">
<title>pen</title>
<path d="M23.45 2.133c-0.277 0.004-0.542 0.116-0.738 0.313l-20.267 20.267c-0.2 0.2-0.312 0.471-0.313 0.754v5.333c0 0.589 0.478 1.067 1.067 1.067h5.333c0.283-0 0.554-0.112 0.754-0.313l20.267-20.267c0.416-0.417 0.416-1.092 0-1.508l-5.333-5.333c-0.204-0.204-0.482-0.317-0.771-0.313zM23.467 4.708l3.825 3.825-2.758 2.758-3.825-3.825zM19.2 8.975l3.825 3.825-14.492 14.492-3.825-3.825z"></path>
</svg>
