<!-- Generated by IcoMoon.io -->
<svg version="1.1" xmlns="http://www.w3.org/2000/svg" width="32" height="32" viewBox="0 0 32 32">
<title>picture</title>
<path d="M3.294 2.256c-0.589 0-1.067 0.478-1.067 1.067v0 25.6c0 0.589 0.478 1.067 1.067 1.067h25.6c0.589-0 1.067-0.478 1.067-1.067v0-25.6c-0-0.589-0.478-1.067-1.067-1.067h-25.6zM4.36 4.39h23.467v14.463l-3.606-3.606c-0.193-0.193-0.46-0.313-0.755-0.313-0.006 0-0.011 0-0.017 0h0.001c-0.288 0.005-0.548 0.123-0.738 0.313l-3.512 3.512-8.846-8.846c-0.193-0.193-0.46-0.313-0.755-0.313-0.006 0-0.011 0-0.017 0h0.001c-0.288 0.005-0.548 0.123-0.738 0.313l-4.485 4.485v-10.008zM19.733 6.4c-2.049 0-3.733 1.684-3.733 3.733s1.684 3.733 3.733 3.733c2.049 0 3.733-1.684 3.733-3.733s-1.684-3.733-3.733-3.733zM19.733 8.533c0.896 0 1.6 0.704 1.6 1.6s-0.704 1.6-1.6 1.6c-0.896 0-1.6-0.704-1.6-1.6s0.704-1.6 1.6-1.6zM9.6 12.175l15.681 15.681h-20.921v-10.442l5.24-5.24zM23.467 17.508l4.36 4.36v5.517l-7.119-7.119 2.758-2.758z"></path>
</svg>
