<!-- Generated by IcoMoon.io -->
<svg version="1.1" xmlns="http://www.w3.org/2000/svg" width="32" height="32" viewBox="0 0 32 32">
<title>pin-0</title>
<path d="M20.702 4.551c-0.417-0.417-1.092-0.417-1.509 0l-5.769 5.769-7.171 1.467c-0.889 0.099-1.269 1.182-0.636 1.815l4.86 4.86-4.757 7.104 7.084-4.778 4.881 4.881c0.632 0.633 1.716 0.253 1.815-0.636l1.467-7.171 5.769-5.769c0.416-0.417 0.416-1.092 0-1.508zM19.948 6.813l4.525 4.525-5.28 5.28c-0.171 0.171-0.279 0.396-0.306 0.636l-1.264 5.336-8.927-8.927 5.336-1.264c0.241-0.027 0.465-0.135 0.636-0.306z"></path>
</svg>
