<!-- Generated by IcoMoon.io -->
<svg version="1.1" xmlns="http://www.w3.org/2000/svg" width="32" height="32" viewBox="0 0 32 32">
<title>pulse-low</title>
<path d="M15.588 11.627c-0.005-0-0.010-0-0.015-0-0.319 0-0.605 0.14-0.8 0.361l-0.001 0.001-3.296 3.754-3.531-1.765c-0.139-0.071-0.303-0.113-0.477-0.113s-0.338 0.042-0.483 0.115l0.006-0.003-1.908 0.954h-2.948c-0.005-0-0.010-0-0.015-0-0.589 0-1.067 0.478-1.067 1.067s0.478 1.067 1.067 1.067c0.005 0 0.011-0 0.016-0h3.199c0 0 0 0 0 0 0.174 0 0.338-0.042 0.483-0.115l-0.006 0.003 1.656-0.829 3.79 1.896c0.139 0.071 0.303 0.113 0.478 0.113 0.319 0 0.605-0.14 0.801-0.362l0.001-0.001 2.985-3.4 3.902 5.054c0.197 0.254 0.502 0.415 0.845 0.415 0.275 0 0.525-0.104 0.714-0.275l3.724-3.353 1.483 0.742c0.139 0.071 0.303 0.113 0.477 0.113 0 0 0 0 0 0h3.2c0.006 0 0.014 0 0.021 0 0.589 0 1.067-0.478 1.067-1.067s-0.477-1.066-1.065-1.067h-0c-0.001 0-0.003 0-0.004 0s-0.003 0-0.004 0h0c-0.002-0-0.005-0-0.007-0s-0.005 0-0.008 0h-2.947l-1.908-0.954c-0.139-0.071-0.304-0.113-0.478-0.113-0.275 0-0.525 0.104-0.714 0.274l-3.409 3.070-3.992-5.169c-0.194-0.249-0.492-0.41-0.828-0.415h-0.001z"></path>
</svg>
