<!-- Generated by IcoMoon.io -->
<svg version="1.1" xmlns="http://www.w3.org/2000/svg" width="32" height="32" viewBox="0 0 32 32">
<title>pulse</title>
<path d="M15.99 2.133c-0.503 0.005-0.922 0.357-1.030 0.828l-0.001 0.007-3.431 15.44-3.048-9.146c-0.145-0.428-0.543-0.731-1.013-0.731s-0.867 0.303-1.010 0.723l-0.002 0.008-1.89 5.671h-2.431c-0.005-0-0.010-0-0.015-0-0.589 0-1.067 0.478-1.067 1.067s0.478 1.067 1.067 1.067c0.005 0 0.011-0 0.016-0h3.199c0 0 0 0 0.001 0 0.468 0 0.866-0.302 1.010-0.722l0.002-0.008 1.121-3.363 3.254 9.762c0.145 0.428 0.543 0.731 1.012 0.731 0.508 0 0.933-0.355 1.040-0.83l0.001-0.007 3.121-14.042 3.321 18.269c0.093 0.502 0.528 0.877 1.050 0.877 0.498 0 0.917-0.342 1.034-0.803l0.002-0.007 3.377-13.51 0.975 2.923c0.146 0.427 0.544 0.729 1.012 0.729 0 0 0 0 0.001 0h3.2c0.005 0 0.010 0 0.015 0 0.589 0 1.067-0.478 1.067-1.067s-0.478-1.067-1.067-1.067c-0.005 0-0.011 0-0.016 0h-2.43l-1.89-5.671c-0.145-0.428-0.544-0.731-1.012-0.731-0.498 0-0.916 0.341-1.034 0.803l-0.002 0.007-3.067 12.265-3.381-18.598c-0.094-0.501-0.528-0.875-1.049-0.875-0.004 0-0.008 0-0.012 0h0.001z"></path>
</svg>
