<!-- Generated by IcoMoon.io -->
<svg version="1.1" xmlns="http://www.w3.org/2000/svg" width="32" height="32" viewBox="0 0 32 32">
<title>response</title>
<path d="M15.969 6.4c-0.23 0.007-0.441 0.086-0.611 0.214l0.003-0.002-12.8 9.6c-0.261 0.197-0.428 0.506-0.428 0.854s0.167 0.657 0.425 0.852l0.003 0.002 12.8 9.6c0.176 0.133 0.398 0.213 0.639 0.213 0.589 0 1.067-0.478 1.067-1.067 0-0 0-0 0-0v0-5.454c2.879-0.042 5.804-0.772 8.152-2.625 2.657-2.097 4.513-5.473 4.648-10.023 0-0.010 0.001-0.022 0.001-0.034 0-0.589-0.478-1.067-1.067-1.067-0.357 0-0.673 0.176-0.867 0.445l-0.002 0.003c-2.219 3.104-6.853 4.88-10.865 4.85v-5.296c0-0 0-0 0-0 0-0.589-0.478-1.067-1.067-1.067-0.011 0-0.022 0-0.033 0l0.002-0zM14.933 9.6v4.267c0 0.557 0.427 1.014 0.971 1.062l0.004 0c3.869 0.336 8.221-0.867 11.387-3.392-0.614 2.377-1.83 4.136-3.4 5.375-2.178 1.719-5.060 2.459-7.831 2.29-0.019-0.001-0.042-0.002-0.064-0.002-0.589 0-1.067 0.477-1.067 1.067v0 4.267l-9.954-7.467 9.954-7.467z"></path>
</svg>
