<!-- Generated by IcoMoon.io -->
<svg version="1.1" xmlns="http://www.w3.org/2000/svg" width="32" height="32" viewBox="0 0 32 32">
<title>s-board</title>
<path d="M2.667 23.333h3.333c1.473 0 2.667 1.194 2.667 2.667v3.333c0 1.473-1.194 2.667-2.667 2.667h-3.333c-1.473 0-2.667-1.194-2.667-2.667v-3.333c0-1.473 1.194-2.667 2.667-2.667z"></path>
<path d="M26 23.333h3.333c1.473 0 2.667 1.194 2.667 2.667v3.333c0 1.473-1.194 2.667-2.667 2.667h-3.333c-1.473 0-2.667-1.194-2.667-2.667v-3.333c0-1.473 1.194-2.667 2.667-2.667z"></path>
<path d="M2.667 11.667h3.333c1.473 0 2.667 1.194 2.667 2.667v3.333c0 1.473-1.194 2.667-2.667 2.667h-3.333c-1.473-0-2.667-1.194-2.667-2.667v-3.333c0-1.473 1.194-2.667 2.667-2.667z"></path>
<path d="M26 11.667h3.333c1.473 0 2.667 1.194 2.667 2.667v3.333c0 1.473-1.194 2.667-2.667 2.667h-3.333c-1.473 0-2.667-1.194-2.667-2.667v-3.333c0-1.473 1.194-2.667 2.667-2.667z"></path>
<path d="M2.667 0h3.333c1.473 0 2.667 1.194 2.667 2.667v3.333c0 1.473-1.194 2.667-2.667 2.667h-3.333c-1.473 0-2.667-1.194-2.667-2.667v-3.333c0-1.473 1.194-2.667 2.667-2.667z"></path>
<path d="M14.333 23.333h3.333c1.473 0 2.667 1.194 2.667 2.667v3.333c0 1.473-1.194 2.667-2.667 2.667h-3.333c-1.473 0-2.667-1.194-2.667-2.667v-3.333c0-1.473 1.194-2.667 2.667-2.667z"></path>
<path d="M14.333 11.667h3.333c1.473 0 2.667 1.194 2.667 2.667v3.333c0 1.473-1.194 2.667-2.667 2.667h-3.333c-1.473 0-2.667-1.194-2.667-2.667v-3.333c0-1.473 1.194-2.667 2.667-2.667z"></path>
<path d="M14.333 0h3.333c1.473 0 2.667 1.194 2.667 2.667v3.333c0 1.473-1.194 2.667-2.667 2.667h-3.333c-1.473 0-2.667-1.194-2.667-2.667v-3.333c0-1.473 1.194-2.667 2.667-2.667z"></path>
<path d="M26 0h3.333c1.473 0 2.667 1.194 2.667 2.667v3.333c0 1.473-1.194 2.667-2.667 2.667h-3.333c-1.473 0-2.667-1.194-2.667-2.667v-3.333c0-1.473 1.194-2.667 2.667-2.667z"></path>
</svg>
