<!-- Generated by IcoMoon.io -->
<svg version="1.1" xmlns="http://www.w3.org/2000/svg" width="32" height="32" viewBox="0 0 32 32">
<title>s-document</title>
<path d="M22.667 16.667c0 1.105-0.895 2-2 2v0h-9.333c-1.105 0-2-0.895-2-2s0.895-2 2-2v0h9.333c1.105 0 2 0.895 2 2v0zM16.667 21.333h-5.333c-1.105 0-2 0.895-2 2s0.895 2 2 2v0h5.333c1.105 0 2-0.895 2-2s-0.895-2-2-2v0zM29.333 10.876v13.791c-0.005 4.048-3.285 7.329-7.333 7.333h-12c-4.048-0.005-7.329-3.285-7.333-7.333v-17.334c0.005-4.048 3.285-7.329 7.333-7.333h8.458c0.006-0 0.013-0 0.021-0 2.018 0 3.845 0.821 5.164 2.148l3.543 3.543c1.327 1.32 2.148 3.147 2.148 5.166 0 0.007 0 0.014-0 0.021v-0.001zM25.333 24.667v-12.667h-5.333c-1.473 0-2.667-1.194-2.667-2.667v0-5.333h-7.333c-1.841 0-3.333 1.492-3.333 3.333v0 17.333c0 1.841 1.492 3.333 3.333 3.333v0h12c1.841 0 3.333-1.492 3.333-3.333v0z"></path>
</svg>
