<!-- Generated by IcoMoon.io -->
<svg version="1.1" xmlns="http://www.w3.org/2000/svg" width="32" height="32" viewBox="0 0 32 32">
<title>s-message</title>
<path d="M32 14.995c-0.537-8.408-7.488-15.024-15.984-15.024-8.845 0-16.015 7.17-16.015 16.015s7.17 16.015 16.015 16.015c0.002 0 0.005 0 0.007 0h8.644c4.048-0.005 7.328-3.285 7.333-7.333v-9.547zM28 24.667c0 1.841-1.492 3.333-3.333 3.333v0h-8.644c-3.56-0.002-6.759-1.548-8.965-4.003l-0.010-0.011c-1.895-2.099-3.054-4.895-3.054-7.96 0-0.5 0.031-0.992 0.091-1.476l-0.006 0.058c0.676-5.469 4.932-9.768 10.322-10.502l0.062-0.007c0.47-0.062 1.013-0.097 1.564-0.097h0c0.010-0 0.022-0 0.034-0 2.906 0 5.569 1.041 7.637 2.77l-0.019-0.015c2.456 2.051 4.077 5.030 4.319 8.392l0.002 0.039z"></path>
<path d="M12.667 14.667h4c1.105 0 2-0.895 2-2s-0.895-2-2-2v0h-4c-1.105 0-2 0.895-2 2s0.895 2 2 2v0z"></path>
<path d="M22 17.333h-9.333c-1.105 0-2 0.895-2 2s0.895 2 2 2v0h9.333c1.105 0 2-0.895 2-2s-0.895-2-2-2v0z"></path>
</svg>
