<!-- Generated by IcoMoon.io -->
<svg version="1.1" xmlns="http://www.w3.org/2000/svg" width="32" height="32" viewBox="0 0 32 32">
<title>s-project</title>
<path d="M24.667 4h-8.011c-0.108-0.001-0.214-0.027-0.309-0.076l-3.927-2.057c-0.669-0.35-1.412-0.533-2.167-0.533h-2.92c-4.048 0.004-7.329 3.285-7.333 7.333v14.667c0.004 4.048 3.285 7.329 7.333 7.333h17.333c4.048-0.004 7.329-3.285 7.333-7.333v-12c-0.004-4.048-3.285-7.329-7.333-7.333zM28 23.333c0 1.841-1.492 3.333-3.333 3.333h-17.333c-1.841 0-3.333-1.492-3.333-3.333v-12.711h23.92c0.052 0.233 0.079 0.472 0.080 0.711v12z"></path>
</svg>
