<!-- Generated by IcoMoon.io -->
<svg version="1.1" xmlns="http://www.w3.org/2000/svg" width="32" height="32" viewBox="0 0 32 32">
<title>s-task</title>
<path d="M10.667 9.333h19.333c1.105 0 2-0.895 2-2s-0.895-2-2-2v0h-19.333c-1.105 0-2 0.895-2 2s0.895 2 2 2v0z"></path>
<path d="M30 14.667h-19.333c-1.105 0-2 0.895-2 2s0.895 2 2 2v0h19.333c1.105 0 2-0.895 2-2s-0.895-2-2-2v0z"></path>
<path d="M30 24h-19.333c-1.105 0-2 0.895-2 2s0.895 2 2 2v0h19.333c1.105 0 2-0.895 2-2s-0.895-2-2-2v0z"></path>
<path d="M6.667 7.333c0 1.841-1.492 3.333-3.333 3.333s-3.333-1.492-3.333-3.333c0-1.841 1.492-3.333 3.333-3.333s3.333 1.492 3.333 3.333z"></path>
<path d="M6.667 16c0 1.841-1.492 3.333-3.333 3.333s-3.333-1.492-3.333-3.333c0-1.841 1.492-3.333 3.333-3.333s3.333 1.492 3.333 3.333z"></path>
<path d="M6.667 25.333c0 1.841-1.492 3.333-3.333 3.333s-3.333-1.492-3.333-3.333c0-1.841 1.492-3.333 3.333-3.333s3.333 1.492 3.333 3.333z"></path>
</svg>
