<!-- Generated by IcoMoon.io -->
<svg version="1.1" xmlns="http://www.w3.org/2000/svg" width="32" height="32" viewBox="0 0 32 32">
<title>s-todo</title>
<path d="M24.667 32h-17.333c-4.048-0.004-7.329-3.285-7.333-7.333v-17.333c0.004-4.048 3.285-7.329 7.333-7.333h17.333c4.048 0.004 7.329 3.285 7.333 7.333v17.333c-0.004 4.048-3.285 7.329-7.333 7.333zM7.333 4c-1.841 0-3.333 1.492-3.333 3.333v17.333c0 1.841 1.492 3.333 3.333 3.333h17.333c1.841 0 3.333-1.492 3.333-3.333v-17.333c0-1.841-1.492-3.333-3.333-3.333h-17.333z"></path>
<path d="M12.889 23.716c-0.841 0.001-1.648-0.335-2.24-0.933l-3.983-3.976c-0.781-0.781-0.782-2.047-0.001-2.828 0-0 0.001-0.001 0.001-0.001v0c0.781-0.781 2.047-0.781 2.828 0l3.395 3.393 9.616-9.616c0.781-0.781 2.047-0.781 2.828 0v0c0.781 0.781 0.782 2.047 0.001 2.828-0 0-0.001 0.001-0.001 0.001l-10.205 10.205c-0.593 0.595-1.399 0.929-2.239 0.927z"></path>
</svg>
