<!-- Generated by IcoMoon.io -->
<svg version="1.1" xmlns="http://www.w3.org/2000/svg" width="32" height="32" viewBox="0 0 32 32">
<title>share</title>
<path d="M5.333 10.667c-0.589 0-1.067 0.478-1.067 1.067v17.067c0 0.589 0.478 1.067 1.067 1.067h21.333c0.589-0 1.067-0.478 1.067-1.067v-17.067c-0-0.589-0.478-1.067-1.067-1.067h-4.267c-1.442-0.020-1.442 2.154 0 2.133h3.2v14.933h-19.2v-14.933h3.2c1.442 0.020 1.442-2.154 0-2.133z"></path>
<path d="M15.983 2.133c-0.288 0.005-0.548 0.123-0.738 0.313l-4.267 4.267c-0.202 0.194-0.328 0.467-0.328 0.769 0 0.589 0.478 1.067 1.067 1.067 0.302 0 0.575-0.126 0.769-0.328l2.446-2.446v13.425c-0 0.005-0 0.010-0 0.015 0 0.589 0.478 1.067 1.067 1.067s1.067-0.478 1.067-1.067c0-0.005-0-0.011-0-0.016v0.001-13.425l2.446 2.446c0.194 0.202 0.467 0.328 0.77 0.328 0.589 0 1.067-0.478 1.067-1.067 0-0.302-0.126-0.575-0.328-0.769l-4.267-4.267c-0.193-0.193-0.46-0.313-0.755-0.313-0.006 0-0.011 0-0.017 0h0.001z"></path>
</svg>
