<!-- Generated by IcoMoon.io -->
<svg version="1.1" xmlns="http://www.w3.org/2000/svg" width="32" height="32" viewBox="0 0 32 32">
<title>shevron-right</title>
<path d="M20.806 1.062c-0.216 0.117-0.403 0.247-0.574 0.395l0.004-0.003c-0.138 0.124-3.060 3.272-6.494 6.994l-6.242 6.77v1.564l6.242 6.77c2.65 2.888 4.768 5.165 6.899 7.431l-0.405-0.435c0.89 0.806 1.802 0.738 2.732-0.208 0.764-0.774 0.84-1.598 0.224-2.41-2.242-2.484-4.063-4.467-5.897-6.436l0.319 0.346c-1.223-1.31-2.975-3.211-4.718-5.119l-0.65-0.721c0-0.014 2.416-2.642 5.368-5.84 1.515-1.623 3.336-3.606 5.142-5.601l0.436-0.489c0.632-0.834 0.542-1.652-0.276-2.458-0.488-0.482-0.866-0.672-1.39-0.694-0.36-0.018-0.43-0.002-0.72 0.144z"></path>
</svg>
