<!-- Generated by IcoMoon.io -->
<svg version="1.1" xmlns="http://www.w3.org/2000/svg" width="32" height="32" viewBox="0 0 32 32">
<title>shevron-left-double</title>
<path d="M3.020 0.978c-0.374 0.149-0.692 0.367-0.951 0.641l-0.001 0.001c-0.508 0.502-0.568 0.646-0.568 1.382v0.608l0.208 0.316c0.112 0.172 2.644 2.954 5.626 6.18 2.98 3.228 5.42 5.88 5.42 5.894s-2.44 2.666-5.42 5.894c-2.982 3.226-5.514 6.008-5.626 6.18l-0.208 0.316v1.252l0.216 0.324c0.24 0.358 0.722 0.79 1.078 0.962 0.662 0.32 1.248 0.22 1.896-0.324 0.262-0.22 13.504-14.54 13.504-14.604s-13.242-14.384-13.508-14.608c-0.416-0.35-0.742-0.486-1.16-0.48-0.003 0-0.006-0-0.009-0-0.177 0-0.348 0.024-0.51 0.069l0.013-0.003zM15.020 0.978c-0.37 0.146-0.685 0.362-0.941 0.633l-0.001 0.001c-0.804 0.798-0.9 1.604-0.288 2.428 0.124 0.168 2.642 2.922 5.596 6.12 1.223 1.31 2.975 3.211 4.718 5.119l0.65 0.721c0 0.014-2.416 2.642-5.368 5.84-2.954 3.198-5.472 5.952-5.596 6.12-0.602 0.812-0.518 1.61 0.254 2.394 0.898 0.912 1.762 0.994 2.642 0.254 0.266-0.224 13.508-14.544 13.508-14.608s-13.242-14.384-13.508-14.608c-0.416-0.35-0.742-0.486-1.16-0.48-0.003 0-0.006-0-0.009-0-0.177 0-0.348 0.024-0.51 0.069l0.013-0.003z"></path>
</svg>
