<!-- Generated by IcoMoon.io -->
<svg version="1.1" xmlns="http://www.w3.org/2000/svg" width="32" height="32" viewBox="0 0 32 32">
<title>team</title>
<path d="M6.4 17.067c-0.77 0-1.477 0.29-1.985 0.717s-0.842 0.952-1.102 1.473c-0.521 1.042-0.807 2.146-1.067 2.667-0.071 0.139-0.113 0.303-0.113 0.477 0 0.589 0.478 1.067 1.067 1.067h10.667c0.589-0 1.067-0.478 1.067-1.067 0-0.174-0.042-0.338-0.115-0.483l0.003 0.006c-0.26-0.52-0.546-1.625-1.067-2.667-0.26-0.521-0.594-1.047-1.102-1.473s-1.215-0.717-1.985-0.717h-4.267zM6.4 19.2h4.267c0.296 0 0.434 0.065 0.615 0.217s0.381 0.426 0.565 0.794c0.155 0.31 0.313 0.74 0.45 1.123h-7.525c0.136-0.383 0.295-0.813 0.45-1.123 0.184-0.368 0.384-0.642 0.565-0.794s0.318-0.217 0.615-0.217z"></path>
<path d="M8.533 7.467c-2.344 0-4.267 1.923-4.267 4.267s1.923 4.267 4.267 4.267c2.344 0 4.267-1.923 4.267-4.267s-1.923-4.267-4.267-4.267zM8.533 9.6c1.191 0 2.133 0.943 2.133 2.133s-0.943 2.133-2.133 2.133c-1.191 0-2.133-0.943-2.133-2.133s0.942-2.133 2.133-2.133z"></path>
<path d="M21.333 17.067c-0.77 0-1.477 0.29-1.985 0.717s-0.842 0.952-1.102 1.473c-0.521 1.042-0.807 2.146-1.067 2.667-0.071 0.139-0.113 0.303-0.113 0.477 0 0.589 0.478 1.067 1.067 1.067h10.667c0.589-0 1.067-0.478 1.067-1.067 0-0.174-0.042-0.338-0.115-0.483l0.003 0.006c-0.26-0.52-0.546-1.625-1.067-2.667-0.26-0.521-0.594-1.047-1.102-1.473s-1.215-0.717-1.985-0.717h-4.267zM21.333 19.2h4.267c0.296 0 0.434 0.065 0.615 0.217s0.381 0.426 0.565 0.794c0.155 0.31 0.314 0.74 0.45 1.123h-7.525c0.137-0.383 0.295-0.813 0.45-1.123 0.184-0.368 0.384-0.642 0.565-0.794s0.318-0.217 0.615-0.217z"></path>
<path d="M23.467 7.467c-2.344 0-4.267 1.923-4.267 4.267s1.923 4.267 4.267 4.267c2.344 0 4.267-1.923 4.267-4.267s-1.923-4.267-4.267-4.267zM23.467 9.6c1.191 0 2.133 0.943 2.133 2.133s-0.942 2.133-2.133 2.133c-1.191 0-2.133-0.943-2.133-2.133s0.942-2.133 2.133-2.133z"></path>
</svg>
