<!-- Generated by IcoMoon.io -->
<svg version="1.1" xmlns="http://www.w3.org/2000/svg" width="32" height="32" viewBox="0 0 32 32">
<title>timelapse</title>
<path d="M16 2.133c-7.646 0-13.867 6.221-13.867 13.867s6.221 13.867 13.867 13.867c7.646 0 13.867-6.221 13.867-13.867s-6.221-13.867-13.867-13.867zM16 4.267c6.493 0 11.733 5.241 11.733 11.733s-5.241 11.733-11.733 11.733c-6.493 0-11.733-5.241-11.733-11.733s5.241-11.733 11.733-11.733z"></path>
<path d="M15.779 7.123c4.056 0 7.477 2.721 8.537 6.437l0.015 0.063c0.206 0.713 0.324 1.531 0.324 2.377 0 3.21-1.704 6.023-4.257 7.581l-0.039 0.022c-1.307 0.8-2.888 1.273-4.581 1.273-2.364 0-4.512-0.924-6.103-2.431l0.004 0.004 6.099-6.45z"></path>
</svg>
