<!-- Generated by IcoMoon.io -->
<svg version="1.1" xmlns="http://www.w3.org/2000/svg" width="32" height="32" viewBox="0 0 32 32">
<title>todo</title>
<path d="M25.241 8.828c-0.442-0.42-1.14-0.388-1.552 0.076l-10.308 11.796-5.108-5.289c-0.429-0.442-1.122-0.442-1.551 0s-0.429 1.155 0 1.598l5.921 6.127c0.006 0.007 0.015 0.002 0.015 0.002s0.013 0.030 0.022 0.034c0.21 0.199 0.475 0.294 0.739 0.294 0.269 0 0.531-0.116 0.743-0.315l0.033-0.017 0.007-0.017 0.030-0.021 11.082-12.672c0.409-0.461 0.376-1.177-0.073-1.597z"></path>
<path d="M3.2 2.133c-0.589 0-1.067 0.478-1.067 1.067v0 25.6c0 0.589 0.478 1.067 1.067 1.067h25.6c0.589-0 1.067-0.478 1.067-1.067v0-25.6c-0-0.589-0.478-1.067-1.067-1.067h-25.6zM4.267 4.267h23.467v23.467h-23.467v-23.467z"></path>
</svg>
