<!-- Generated by IcoMoon.io -->
<svg version="1.1" xmlns="http://www.w3.org/2000/svg" width="32" height="32" viewBox="0 0 32 32">
<title>trash</title>
<path d="M12.848 1.78c-3.248 0.033-3.248 0.033-4.063 1.1h-0.252c-1.314 0-2.409 0.779-3.129 1.775s-1.138 3.64-1.138 4.945c0 0.589 0.478 1.067 1.067 1.067h1.067v14.933c0 3.2 0 4.267 4.267 4.267h10.667c4.267 0 4.267-1.067 4.267-4.267v-14.933h1.067c0.589-0 1.067-0.478 1.067-1.067 0-1.173-0.422-3.765-1.121-4.787s-1.759-1.933-3.146-1.933h-0.142c-0.925-1.067-0.925-1.067-4.077-1.1zM8.533 5.013h14.933c0.386 0 0.928 0.336 1.385 1.004 0.235 0.344 0.255 2.115 0.385 2.516h-18.498c0.129-0.432 0.159-2.303 0.394-2.628 0.437-0.604 0.941-0.892 1.4-0.892zM8.533 10.667h3.2v17.067c-3.2 0-3.286-0.936-3.2-2.133zM14.187 10.667h3.627v17.067h-3.627zM20.267 10.667h3.2v14.933c0 1.2 0 2.133-3.2 2.133z"></path>
</svg>
