<!-- Generated by IcoMoon.io -->
<svg version="1.1" xmlns="http://www.w3.org/2000/svg" width="32" height="32" viewBox="0 0 32 32">
<title>tune</title>
<path d="M4.267 6.4c-0.005-0-0.010-0-0.015-0-0.589 0-1.067 0.478-1.067 1.067s0.478 1.067 1.067 1.067c0.005 0 0.011-0 0.016-0h11.733c0.004 0 0.010 0 0.015 0 0.589 0 1.067-0.478 1.067-1.067s-0.478-1.067-1.067-1.067c-0.005 0-0.011 0-0.016 0h-11.733z"></path>
<path d="M24.533 6.4c-0.005-0-0.010-0-0.015-0-0.589 0-1.067 0.478-1.067 1.067s0.478 1.067 1.067 1.067c0.005 0 0.011-0 0.016-0h3.199c0.005 0 0.010 0 0.015 0 0.589 0 1.067-0.478 1.067-1.067s-0.478-1.067-1.067-1.067c-0.005 0-0.011 0-0.016 0h-3.199z"></path>
<path d="M4.267 14.933c-0.005-0-0.010-0-0.015-0-0.589 0-1.067 0.478-1.067 1.067s0.478 1.067 1.067 1.067c0.005 0 0.011-0 0.016-0h3.199c0.005 0 0.010 0 0.015 0 0.589 0 1.067-0.478 1.067-1.067s-0.478-1.067-1.067-1.067c-0.005 0-0.011 0-0.016 0h-3.199z"></path>
<path d="M16 14.933c-0.005-0-0.010-0-0.015-0-0.589 0-1.067 0.478-1.067 1.067s0.478 1.067 1.067 1.067c0.005 0 0.011-0 0.016-0h11.733c0.005 0 0.010 0 0.015 0 0.589 0 1.067-0.478 1.067-1.067s-0.478-1.067-1.067-1.067c-0.005 0-0.011 0-0.016 0h-11.733z"></path>
<path d="M4.267 23.467c-0.005-0-0.010-0-0.015-0-0.589 0-1.067 0.478-1.067 1.067s0.478 1.067 1.067 1.067c0.005 0 0.011-0 0.016-0h7.466c0.005 0 0.010 0 0.015 0 0.589 0 1.067-0.478 1.067-1.067s-0.478-1.067-1.067-1.067c-0.005 0-0.011 0-0.016 0h-7.466z"></path>
<path d="M20.267 23.467c-0.005-0-0.010-0-0.015-0-0.589 0-1.067 0.478-1.067 1.067s0.478 1.067 1.067 1.067c0.005 0 0.011-0 0.016-0h7.466c0.005 0 0.010 0 0.015 0 0.589 0 1.067-0.478 1.067-1.067s-0.478-1.067-1.067-1.067c-0.005 0-0.011 0-0.016 0h-7.466z"></path>
<path d="M20.25 4.252c-0.582 0.009-1.050 0.483-1.050 1.067 0 0.005 0 0.010 0 0.015v-0.001 4.267c-0 0.005-0 0.010-0 0.015 0 0.589 0.478 1.067 1.067 1.067s1.067-0.478 1.067-1.067c0-0.005-0-0.011-0-0.016v0.001-4.267c0-0.004 0-0.009 0-0.015 0-0.589-0.478-1.067-1.067-1.067-0.006 0-0.012 0-0.018 0h0.001z"></path>
<path d="M11.717 12.785c-0.582 0.009-1.050 0.483-1.050 1.067 0 0.005 0 0.010 0 0.015v-0.001 4.267c-0 0.005-0 0.010-0 0.015 0 0.589 0.478 1.067 1.067 1.067s1.067-0.478 1.067-1.067c0-0.005-0-0.011-0-0.016v0.001-4.267c0-0.004 0-0.009 0-0.015 0-0.589-0.478-1.067-1.067-1.067-0.006 0-0.012 0-0.018 0h0.001z"></path>
<path d="M15.983 21.319c-0.582 0.009-1.050 0.483-1.050 1.067 0 0.005 0 0.010 0 0.015v-0.001 4.267c-0 0.005-0 0.010-0 0.015 0 0.589 0.478 1.067 1.067 1.067s1.067-0.478 1.067-1.067c0-0.005-0-0.011-0-0.016v0.001-4.267c0-0.004 0-0.009 0-0.015 0-0.589-0.478-1.067-1.067-1.067-0.006 0-0.012 0-0.018 0h0.001z"></path>
</svg>
