<!-- Generated by IcoMoon.io -->
<svg version="1.1" xmlns="http://www.w3.org/2000/svg" width="32" height="32" viewBox="0 0 32 32">
<title>unarchive</title>
<path d="M1.056-0.010c-0.957 0-1.43 1.164-0.744 1.831l1.821 5.931v21.581c0 0.295 0.239 0.533 0.533 0.533h26.667c0.295-0 0.533-0.239 0.533-0.533v-21.581l1.821-5.931c0.698-0.678 0.198-1.86-0.775-1.831-0.277 0.008-0.54 0.124-0.733 0.323l-1.925 6.088h-24.508l-1.925-6.088c-0.201-0.206-0.477-0.323-0.765-0.323zM4.267 8.533h23.467v19.2h-23.467zM15.983 10.646c-0.069 0.001-0.133 0.030-0.2 0.044-0.219 0.041-0.419 0.139-0.573 0.304l-4.231 4.231c-1.047 1.005 0.503 2.555 1.508 1.508l2.446-2.446v10.246c-0.008 0.601 0.482 1.091 1.083 1.081 0.588-0.009 1.058-0.493 1.050-1.081v-10.246l2.446 2.446c1.005 1.047 2.555-0.503 1.508-1.508l-4.231-4.231c-0.16-0.172-0.369-0.273-0.598-0.31-0.070-0.013-0.136-0.039-0.208-0.037z"></path>
</svg>
