<!-- Generated by IcoMoon.io -->
<svg version="1.1" xmlns="http://www.w3.org/2000/svg" width="32" height="32" viewBox="0 0 32 32">
<title>user</title>
<path d="M8.533 21.333c-2.074 0-3.686 1.349-4.74 2.854s-1.66 3.19-1.66 4.613c0 0.589 0.478 1.067 1.067 1.067h25.6c0.589-0 1.067-0.478 1.067-1.067v0c0-1.422-0.607-3.107-1.66-4.613s-2.666-2.854-4.74-2.854h-14.933zM8.533 23.467h14.933c1.126 0 2.181 0.785 2.994 1.946 0.557 0.796 0.681 1.565 0.873 2.321h-22.667c0.191-0.756 0.316-1.525 0.873-2.321 0.813-1.161 1.868-1.946 2.994-1.946z"></path>
<path d="M16 2.133c-4.7 0-8.533 3.833-8.533 8.533s3.833 8.533 8.533 8.533c4.7 0 8.533-3.833 8.533-8.533s-3.833-8.533-8.533-8.533zM16 4.267c3.547 0 6.4 2.853 6.4 6.4s-2.853 6.4-6.4 6.4c-3.547 0-6.4-2.853-6.4-6.4s2.853-6.4 6.4-6.4z"></path>
</svg>
